<?xml version="1.0" standalone="no"?>
<!DOCTYPE svg PUBLIC "-//W3C//DTD SVG 20010904//EN"
 "http://www.w3.org/TR/2001/REC-SVG-20010904/DTD/svg10.dtd">
<svg version="1.0" xmlns="http://www.w3.org/2000/svg"
 width="512.000000pt" height="512.000000pt" viewBox="0 0 512.000000 512.000000"
 preserveAspectRatio="xMidYMid meet">
<metadata>
Created by potrace 1.11, written by Peter Selinger 2001-2013
</metadata>
<g transform="translate(0.000000,512.000000) scale(0.100000,-0.100000)"
fill="#000000" stroke="none">
<path d="M966 3545 c-362 -73 -648 -329 -759 -680 -34 -109 -38 -132 -42 -270
-5 -155 8 -246 51 -367 102 -285 320 -508 602 -612 103 -38 212 -55 346 -52
181 5 284 33 486 133 165 83 182 92 505 278 209 121 294 169 370 212 101 57
352 175 473 224 l134 53 56 -19 c91 -31 263 -122 458 -242 301 -186 453 -258
579 -278 154 -25 365 30 470 121 17 14 39 33 50 43 74 60 151 190 184 309 30
110 23 271 -16 378 -114 306 -400 474 -713 417 -97 -18 -266 -100 -550 -268
-209 -124 -408 -230 -481 -255 -34 -12 -45 -10 -130 19 -260 90 -424 175 -929
481 -303 184 -576 320 -715 356 -122 32 -319 40 -429 19z m359 -190 c166 -41
318 -119 835 -429 270 -162 595 -334 663 -351 44 -11 40 -21 -16 -45 -162 -70
-372 -181 -667 -353 -113 -66 -223 -130 -245 -142 -22 -12 -58 -32 -80 -45
-113 -65 -348 -181 -405 -200 -295 -99 -599 -33 -815 176 -163 158 -249 356
-250 579 0 155 17 242 74 367 107 235 353 421 601 455 19 3 36 6 38 8 10 9
211 -5 267 -20z m3128 -488 c69 -31 125 -86 160 -158 121 -248 -91 -527 -363
-477 -71 13 -275 123 -552 298 -63 40 -65 33 22 82 25 14 92 53 150 88 166 98
307 171 358 185 72 19 160 12 225 -18z"/>
</g>
</svg>
