<?xml version="1.0" encoding="utf-8"?>
<!-- Generator: Adobe Illustrator 21.0.2, SVG Export Plug-In . SVG Version: 6.00 Build 0)  -->
<svg version="1.1" id="Layer_1" xmlns="http://www.w3.org/2000/svg" xmlns:xlink="http://www.w3.org/1999/xlink" x="0px" y="0px"
	 viewBox="0 0 234 69" style="enable-background:new 0 0 234 69;" xml:space="preserve">
<style type="text/css">
	.st0{fill:#003A70;}
	.st1{fill:#67B2E8;}
</style>
<g>
	<path class="st0" d="M201.4,43.6c-0.2,0.1-0.3,0.1-0.4,0.1c-0.9-0.6-1.8-1.3-2.9-1.3c-1.3,0-2.4,0.5-3.3,1.6
		c-1.1,1.3-1.7,3.2-1.7,5.8v8.7c0,0.2-0.1,0.3-0.3,0.3h-2c-0.2,0-0.3-0.1-0.3-0.3v-18c0-0.2,0.1-0.3,0.3-0.3h2
		c0.2,0,0.3,0.1,0.3,0.3v2.1c0,0,0.1,0,0.1,0c1.2-1.8,2.8-2.7,4.9-2.8c1.7-0.1,3.2,0.6,4.7,1.9c0.2,0.1,0.2,0.3,0,0.4L201.4,43.6z"
		/>
	<path class="st0" d="M172.2,44.5c-1.4,1.4-2.1,3.1-2.1,5.1c0,2,0.7,3.7,2.1,5.1c1.4,1.4,3.1,2.1,5.1,2.1c2,0,3.7-0.7,5.1-2.1
		c1.4-1.4,2.1-3.1,2.2-5.1c0-2-0.7-3.7-2.1-5.1c-1.4-1.4-3.1-2.2-5.1-2.2C175.3,42.3,173.6,43,172.2,44.5z M184.2,56.5
		c-1.9,1.9-4.2,2.8-6.9,2.8c-2.7,0-5-0.9-7-2.8c-1.9-1.9-2.9-4.2-2.9-6.9c0-2.7,1-5,2.9-6.9c2-1.9,4.2-2.9,7-2.9c2.7,0,5,1,6.9,2.9
		c1.9,1.9,2.9,4.2,2.9,6.9C187.1,52.3,186.1,54.6,184.2,56.5z"/>
	<path class="st0" d="M218.2,45.1c-1.3-1.8-3.1-2.7-5.5-2.7c-2.5,0-4,1.2-4.8,3.6c-0.6,1.7-0.8,3.4-0.5,5.2c0.5,3.5,2.3,5.6,5.3,5.6
		c2.5,0,4.4-0.9,5.6-2.8V45.1z M220.8,59.3c0,6-3.1,9.2-8.5,9.2c-2.8,0-5.1-1.5-7-3.2c-0.1-0.1-0.1-0.2,0-0.3c0-0.1,0.7-0.8,0.7-0.8
		c0,0,0.8-0.7,0.8-0.7c0.1-0.1,0.3-0.1,0.4,0c1.8,1.6,3.4,2.6,5.1,2.6c3.9,0,5.9-2.1,5.9-6.4v-2.4c-1.5,1.4-3.4,2.1-5.8,2.1
		c-2.7,0-4.8-1-6.3-3c-1.3-1.8-2-4-2-6.7c0-2.5,0.6-4.7,1.9-6.5c1.5-2.1,3.6-3.2,6.4-3.2c2.2,0,4.1,0.7,5.8,2v-1.3
		c0-0.2,0.1-0.3,0.3-0.3h2c0.2,0,0.3,0.1,0.3,0.3V59.3z"/>
	<circle class="st0" cx="162" cy="57" r="2.1"/>
	<g>
		<path class="st1" d="M106.1,49.7c-2.3,0.2-5,0.6-6.4,1.1c-1.6,0.6-2.4,1.6-2.3,2.9c0.1,1.7,1.8,2.8,3.6,2.9c2,0.1,3.7-0.5,5-1.8
			V49.7z M109,58.5c0,0.3-0.1,0.4-0.3,0.4h-2.2c-0.3,0-0.4-0.1-0.4-0.3v-0.9c-1.4,1.1-3.1,1.6-5.1,1.6c-2.6,0-4.4-0.8-5.6-2.5
			c-0.6-0.8-1-2.2-1-3.2c0-2.5,1.6-4.3,4.8-5.3c1.4-0.4,3.6-0.8,6.8-1.1c0.1-1.1-0.3-4.6-4.2-4.6c-1.7,0-3.3,0.6-5,1.8
			c-0.2,0.1-0.3,0.1-0.5-0.1l-1.2-1.7c-0.1-0.1-0.1-0.3,0.1-0.5c1.9-1.6,4.3-2.2,6.5-2.2c1.8,0,3.3,0.4,4.5,1.2
			c1.8,1.2,2.6,3.2,2.6,5.9V58.5z"/>
	</g>
	<g>
		<path class="st1" d="M126.5,56.6c0.2,0.2,0.2,0.3,0,0.5c-1.6,1.4-3.3,2.2-5.2,2.2c-4,0-5.9-2.1-5.9-6.3V42.9H113
			c-0.3,0-0.4-0.1-0.4-0.3v-2c0-0.3,0.1-0.4,0.4-0.4h2.3v-3.7c0-0.3,0.1-0.4,0.3-0.4h2.2c0.2,0,0.3,0.1,0.3,0.3v3.7h6.3
			c0.2,0,0.3,0.1,0.3,0.3v2c0,0.3-0.1,0.4-0.3,0.4h-6.3v9.9c0,2.6,1,3.9,3,3.9c1.1,0,2.3-0.5,3.3-1.5c0.1-0.1,0.3-0.1,0.5,0
			L126.5,56.6z"/>
	</g>
	<g>
		<path class="st1" d="M136.8,42.4c-1.6,0-2.9,0.5-4,1.6c-1.1,1-1.7,2.3-1.9,3.9c0,0,11.7,0,11.7,0c-0.1-1.6-0.6-2.8-1.7-3.9
			C139.7,42.9,138.3,42.4,136.8,42.4z M145.6,50.2c0,0.2-0.1,0.3-0.3,0.3h-14.4c0.1,1.7,0.7,3.1,1.9,4.2c1.3,1.2,2.9,1.8,4.9,1.8
			c1.8,0,3.4-0.5,4.8-1.5c0.2-0.1,0.4-0.2,0.5,0l1.5,1.6c0.2,0.2,0.2,0.3,0,0.5c-2,1.6-4.3,2.2-7,2.2c-2.8,0-5.2-0.9-7.1-2.8
			c-1.8-1.9-2.7-4.2-2.7-7.1c0-2.7,0.9-5,2.7-6.9c1.7-1.7,3.8-2.6,6.5-2.6c2.5,0,4.7,0.9,6.3,2.7c1.7,1.8,2.5,4.2,2.5,7L145.6,50.2z
			"/>
	</g>
	<path class="st1" d="M160.8,43.9c-0.2,0.2-0.3,0.2-0.5,0.1c-0.8-0.6-1.7-1.2-2.6-1.2c-1.2,0-2.3,0.5-3.2,1.5
		c-1.1,1.3-1.6,3.1-1.6,5.6v8.6c0,0.3-0.1,0.4-0.3,0.4h-2.2c-0.3,0-0.4-0.1-0.4-0.3v-18c0-0.3,0.1-0.4,0.4-0.4h2.2
		c0.3,0,0.4,0.1,0.4,0.3v1.9c0,0,0.1,0,0.1,0c1.2-1.7,2.8-2.5,4.7-2.6c1.7-0.1,3.2,0.6,4.7,1.9c0.2,0.2,0.2,0.3,0,0.5L160.8,43.9z"
		/>
	<g>
		<path class="st1" d="M91,51.6c0,2.2-0.7,3.9-2,5.3c-1.4,1.5-3.2,2.3-5.4,2.3c-2.8,0-4.9-1.1-6.1-3.3c-0.3,0.6-0.9,1.2-1.6,1.8
			c-1.3,1-2.7,1.5-4.3,1.5c-2.3,0-4.2-0.8-5.6-2.3c-1.3-1.4-2-3.1-2-5.3V40.6c0-0.3,0.1-0.4,0.3-0.4h2.2c0.2,0,0.3,0.1,0.3,0.3v10.6
			c0,2.7,1.9,5.2,4.6,5.2c1.6,0,2.7-0.6,3.5-1.7c0.7-1,1.1-2.3,1.1-3.9V40.6c0-0.3,0.1-0.4,0.3-0.4h2.2c0.2,0,0.3,0.1,0.3,0.3v10.2
			c0,1.7,0.4,3,1.1,4c0.8,1.1,1.9,1.7,3.5,1.7c2.9,0,4.6-2.5,4.6-5.2V40.6c0-0.3,0.1-0.4,0.4-0.4h2.2c0.3,0,0.4,0.1,0.4,0.3V51.6z"
			/>
	</g>
	<path class="st1" d="M79.1,7.1c-1.9,0-3.9,0.5-5.7,1.4c-3,1.5-5.5,3-7.7,4.3c-3.2,1.9-5.9,3.5-8.9,4.5c-7-2.2-11.7-4.9-17-8.2
		c-3.3-2-7-4.2-11.8-6.5C25,1.2,22,0.5,19,0.5C8.8,0.5,0.5,8.8,0.5,19.1c0,5,1.9,9.6,5.4,13.2c3.5,3.5,8.2,5.5,13.1,5.5
		c3,0,6-0.7,8.9-2.2c4.6-2.3,8.3-4.4,11.6-6.3c5.5-3.2,10.2-5.9,17.2-8.3c3.7,1.2,6.3,2.8,9.3,4.7c2.1,1.3,4.4,2.7,7.3,4.1
		c1.8,0.9,3.8,1.4,5.7,1.4h0c3.2,0,6.2-1.2,8.4-3.5c2.3-2.3,3.5-5.3,3.5-8.5C91,12.5,85.7,7.1,79.1,7.1z M79.1,12.8
		c3.4,0,6.2,2.8,6.2,6.3c0,3.5-2.8,6.3-6.2,6.3c-1.1,0-2.1-0.3-3.2-0.8c-2.7-1.3-4.8-2.6-6.9-3.9c-0.9-0.6-1.8-1.1-2.8-1.7
		c0.8-0.4,1.5-0.9,2.3-1.3c2.3-1.3,4.6-2.7,7.4-4.1C77,13.1,78,12.8,79.1,12.8z M37.9,26.3c-3.4,2-6.9,4-11.4,6.2
		c-2.4,1.2-4.9,1.8-7.4,1.8c-4,0-7.8-1.6-10.7-4.5C5.5,27,3.9,23.2,3.9,19.1c0-8.4,6.8-15.2,15.1-15.2c2.5,0,5,0.6,7.4,1.8
		c4.6,2.2,8.1,4.4,11.5,6.4c4.5,2.7,8.5,5.1,13.8,7.1C46.4,21.3,42.4,23.7,37.9,26.3z"/>
	<g>
		<path class="st0" d="M232.2,32.9c-0.8,0.8-1.9,1.3-3,1.3c-1.2,0-2.2-0.4-3-1.3c-0.8-0.8-1.2-1.9-1.2-3c0-1.2,0.4-2.2,1.3-3
			c0.8-0.8,1.8-1.3,3-1.3c1.2,0,2.2,0.4,3,1.3c0.8,0.8,1.3,1.8,1.3,3C233.5,31,233.1,32.1,232.2,32.9z M226.6,27.2
			c-0.7,0.7-1.1,1.6-1.1,2.6c0,1,0.4,1.9,1.1,2.6c0.7,0.7,1.6,1.1,2.6,1.1c1,0,1.9-0.4,2.6-1.1c0.7-0.7,1.1-1.6,1.1-2.6
			c0-1-0.4-1.9-1.1-2.6c-0.7-0.7-1.6-1.1-2.6-1.1C228.2,26.2,227.3,26.5,226.6,27.2z M229.1,27.5c0.6,0,1,0.1,1.3,0.2
			c0.5,0.2,0.7,0.6,0.7,1.2c0,0.4-0.2,0.7-0.5,0.9c-0.2,0.1-0.4,0.2-0.7,0.2c0.4,0.1,0.6,0.2,0.8,0.5c0.2,0.2,0.3,0.5,0.3,0.7v0.3
			c0,0.1,0,0.2,0,0.4c0,0.1,0,0.2,0,0.2l0,0.1h-0.8c0,0,0,0,0,0s0,0,0-0.1l0-0.2v-0.4c0-0.5-0.1-0.9-0.4-1.1
			c-0.2-0.1-0.5-0.2-0.9-0.2h-0.7v1.9h-0.8v-4.7H229.1z M230,28.2c-0.2-0.1-0.5-0.2-1-0.2h-0.7v1.7h0.8c0.4,0,0.6,0,0.8-0.1
			c0.3-0.1,0.5-0.4,0.5-0.7C230.3,28.6,230.2,28.3,230,28.2z"/>
	</g>
</g>
</svg>
